<svg xmlns="http://www.w3.org/2000/svg" id="Layer_2" viewBox="0 0 283.68 33.71"><defs><style>.cls-1{fill:#cecece;}.cls-1,.cls-2{fill-rule:evenodd;stroke-width:0px;}.cls-2{fill:#fff;}</style></defs><g id="Layer_1-2"><path class="cls-1" d="M97.29,25.51h5.92c1.02,0,2.29-.12,3.19-.7.82-.53,1-1.58,1-2.54,0-2.72-2.76-3.06-4.7-3.06h-5.41v6.3h0ZM34.89,25.4h10.79v4.86h-15.45V3.79h4.66v21.61h0ZM17.89,24.24v-7.23h4.66v9.31l-.09.1c-2.56,3.07-6.1,4.13-9.82,4.13-3.46,0-6.51-1.21-9.01-3.86-2.5-2.66-3.63-5.97-3.63-9.76s1.18-7.15,3.7-9.83c2.48-2.64,5.48-3.93,8.94-3.93,3.26,0,6.25.97,8.71,3.33l.23.22-2.52,3.91-.28-.26c-.79-.73-1.68-1.36-2.67-1.72-1.01-.36-2.1-.48-3.16-.48-2.22,0-4.17.75-5.79,2.42-1.65,1.71-2.33,3.9-2.33,6.36s.64,4.62,2.26,6.33c1.53,1.61,3.37,2.38,5.5,2.38,1.85,0,3.7-.37,5.29-1.42h0ZM152.2,25.4h10.79v4.86h-15.45V3.79h4.66v21.61h0ZM128.94,10.33l-3.56,8.8h7.13l-3.56-8.8h0ZM123.32,24.2l-2.36,5.83-.09.22h-5l10.71-26.46h4.7l10.71,26.46h-5l-.09-.22-2.36-5.83h-11.24ZM97.29,14.46h4.74c1.83,0,3.99-.39,3.99-2.84,0-.9-.2-1.8-.91-2.35-.81-.63-2.09-.74-3.05-.74h-4.77v5.93h0ZM108.01,16.44c1.07.4,2.02,1.04,2.78,2,.97,1.22,1.38,2.7,1.38,4.31,0,1.91-.6,3.58-1.78,4.99-1.72,2.08-4.65,2.51-7.08,2.51h-10.68V3.79h9.53c1.42,0,2.89.16,4.25.64,1.01.36,2.02.92,2.73,1.8,1.09,1.35,1.71,2.92,1.71,4.73s-.49,3.61-1.89,4.79c-.27.22-.62.51-.93.68,0,0-.01,0-.02.01Z"/><path class="cls-2" d="M248.84,17.43l-5.35,5.89v6.58h-2.38V4.15h2.38v15.9l14.16-15.9h3.28l-10.4,11.43,10.73,14.32h-3.1l-9.32-12.47h0ZM213.53,29.68l-.09.21h-2.52l11.01-25.93h2.07l11.01,25.93h-2.61l-.09-.21c-4.11-9.85-4.47-10.68-9.38-22.43-5.18,12.35-5.11,12.11-9.41,22.43h0ZM266.66,4.15h17.02v2.41h-17.02v-2.41h0ZM266.66,15.73h17.02v2.41h-14.8v9.35h14.8v2.41h-17.02v-14.17h0ZM186.16,23.06c0,1.02-.19,2.01-.61,2.93-.4.89-.96,1.65-1.66,2.28-.74.66-1.6,1.13-2.5,1.46-1.02.37-2.1.52-3.17.52-1.75,0-3.48-.3-5.1-1.03-1.62-.73-3.07-1.8-4.38-3.07l-.25-.24,1.56-1.95.25.26c.58.59,1.19,1.14,1.85,1.63.58.44,1.21.81,1.86,1.11.65.29,1.32.51,2,.66.75.16,1.53.22,2.3.22s1.53-.1,2.26-.36c.62-.22,1.22-.53,1.73-.97.46-.4.83-.88,1.09-1.45.27-.57.39-1.18.39-1.82v-.07c0-.56-.07-1.13-.26-1.66-.18-.52-.52-.93-.91-1.28-.55-.48-1.24-.83-1.9-1.1-1-.42-2.11-.7-3.16-.93-1.22-.27-2.44-.62-3.6-1.11-.89-.38-1.77-.86-2.5-1.52-.63-.57-1.14-1.26-1.46-2.09-.33-.85-.45-1.76-.45-2.68v-.07c0-.97.19-1.89.59-2.76.4-.86.95-1.59,1.63-2.21.72-.65,1.55-1.13,2.44-1.46.99-.37,2.02-.52,3.06-.52,1.49,0,3.03.2,4.44.77,1.33.55,2.55,1.37,3.65,2.35l.26.23-1.51,2.04-.26-.25c-.94-.88-2.01-1.65-3.19-2.11-1.11-.43-2.27-.62-3.45-.62-.75,0-1.5.1-2.21.36-.6.22-1.17.53-1.67.96-.44.38-.79.84-1.04,1.38-.24.52-.36,1.07-.36,1.66v.07c0,.57.07,1.14.26,1.68.18.53.52.96.92,1.31.56.5,1.28.86,1.96,1.14,1.06.43,2.19.74,3.3.98,1.94.44,4.38,1.18,5.93,2.6,1.31,1.2,1.89,2.8,1.89,4.66v.07h0ZM201.44,6.56v23.34h-2.38V6.56h-8.01v-2.41h18.4v2.41h-8.01Z"/><path class="cls-1" d="M77.17,30.59c5.63-3.98,8.28-10.98,6.72-17.69-1.57-6.71-7.04-11.81-13.85-12.9,6.71,1.62,11.39,7.34,11.97,13.9-1.63-2.59-3.71-4.8-6.11-6.55-.37-1.76-.96-3.48-1.78-5.12.49,1.49.81,3.02.98,4.56-1.99-1.33-4.17-2.35-6.47-3.03,1.14-.84,2.35-1.61,3.62-2.28-1.63.52-3.18,1.2-4.62,2.01-3.27-.82-6.76-.94-10.24-.27,3.16-.29,6.26.05,9.16.91-2.54,1.6-4.74,3.64-6.52,5.99-1.95-.26-3.96-.3-5.98-.1,1.9.02,3.76.25,5.56.67-1.85,2.59-3.21,5.53-3.96,8.67-1.23-.12-2.5-.11-3.77.01,1.24.08,2.45.28,3.63.58-.43,2.02-.61,4.11-.52,6.23-3.09-3.22-4.79-7.72-4.3-12.48-1.24,6.78,1.75,13.64,7.56,17.35,5.81,3.71,13.29,3.53,18.92-.46h0ZM77.7,26.16c-1.78,1.86-4,3.26-6.45,4.07-.49-1.03-1.07-2-1.72-2.91,2.08-1.92,3.77-4.26,4.95-6.89,1.3,1.74,2.38,3.66,3.22,5.73h0ZM73.08,18.72c-.13.28-.27.55-.41.82-1.19,2.27-2.75,4.3-4.59,6.01-2.7-2.95-6.27-5-10.2-5.85.78-3.01,2.04-5.87,3.72-8.46,4.44,1.42,8.41,4.02,11.48,7.48h0ZM66.38,26.98c-1.67,1.27-3.52,2.3-5.51,3.06-1.4-.52-2.7-1.23-3.88-2.1-.09-2.49.14-4.95.67-7.32,3.43,1.29,6.44,3.49,8.71,6.35h0ZM79.47,23.94c-1.1-2.17-2.49-4.14-4.1-5.87.85-2.71,1.14-5.55.88-8.34,2.36,2.21,4.29,4.91,5.62,7.98l-.1.59c-.4,2.08-1.2,3.98-2.3,5.65h0ZM73.94,16.64c-3.32-3.04-7.4-5.18-11.83-6.15,1.55-2.23,3.42-4.25,5.57-5.99,2.76.97,5.32,2.44,7.54,4.31.04,2.66-.39,5.31-1.28,7.84h0ZM67.69,28.84c.4.64.76,1.3,1.09,1.99-1.46.23-2.97.25-4.5.05,1.2-.58,2.34-1.26,3.41-2.05Z"/></g></svg>